<?xml version="1.0" encoding="utf-8"?>
<!-- Generator: Adobe Illustrator 18.0.0, SVG Export Plug-In . SVG Version: 6.00 Build 0)  -->
<!DOCTYPE svg PUBLIC "-//W3C//DTD SVG 1.1//EN" "http://www.w3.org/Graphics/SVG/1.1/DTD/svg11.dtd">
<svg version="1.1" id="Layer_1" xmlns="http://www.w3.org/2000/svg" xmlns:xlink="http://www.w3.org/1999/xlink" x="0px" y="0px"
	 viewBox="0 0 176.9 42.9" enable-background="new 0 0 176.9 42.9" xml:space="preserve">
<g>
	<g>
		<g>
			<path fill="#353838" d="M78.8,25.9c-0.9,3.1-3.4,4.1-5.6,4.1c-3.6,0-6.4-1.7-6.4-7c0-1.5,0.5-6.5,6.1-6.5c2.5,0,6,1.2,6,7v0.6
				h-8.8c0.1,1,0.3,3.1,3,3.1c0.9,0,1.9-0.5,2.2-1.4H78.8z M75.5,22c-0.2-2.1-1.5-2.7-2.6-2.7c-1.6,0-2.4,1-2.6,2.7H75.5z"/>
			<path fill="#353838" d="M98,29.6h-3.4V12.4H98V29.6z"/>
			<path fill="#353838" d="M86.5,16.5c-2.6,0-5.3,0.6-5.7,4.5H84c0.1-0.7,0.4-1.8,2.1-1.8c0.9,0,2.2,0.1,2.2,1.5
				c0,0.7-0.6,0.9-1.2,1l-3,0.5c-2.1,0.3-3.7,1.6-3.7,4.1c0,2.6,2,3.7,3.9,3.7c2.2,0,3.3-1,4-1.7v1.4h0.4h2.9v-2.5v-3.9V23v-2.8
				C91.5,17.1,88.3,16.5,86.5,16.5z M85.3,27.5c-0.6,0-1.6-0.4-1.6-1.5c0-1.4,1-1.7,2.3-1.9c1.4-0.2,1.9-0.4,2.3-0.7V25
				C88.3,26.6,86.7,27.5,85.3,27.5z"/>
			<path fill="#353838" d="M65,25.7c-0.1-3.2-0.8-3.7-2.3-4.3c1.7-0.6,2.7-2.2,2.7-4.1c0-1.5-0.8-4.9-5.4-4.9h-8.7v17.2h3.5v-6.7
				h3.7c2.7,0,2.8,0.9,2.8,3.3c0,1.8,0.1,2.7,0.4,3.5h3.7C65.4,29.6,65.1,27.6,65,25.7z M59,20h-4.2v-4.6h4.5c2.1,0,2.5,1.3,2.5,2.3
				C61.8,19.3,60.9,20,59,20z"/>
		</g>
		<g>
			<path fill="#F59524" d="M105.3,29.6h-3.6V12.4h3.6V29.6z"/>
			<path fill="#F59524" d="M126.6,29.6h-3.4v-7.7c0-1.9-0.8-2.5-1.8-2.5c-1.7,0-2.3,1.1-2.3,2.6v7.6h-3.4v-7.7c0-1.1,0-2.6-2-2.6
				c-1.6,0-2.1,1.1-2.1,2.5v7.8h-3.4V16.9h3.2v1.9h0c0.4-0.8,1.4-2.2,3.6-2.2c1.8,0,2.7,0.7,3.5,2c0.4-0.6,1.4-2,3.4-2
				c2.5,0,4.4,1.5,4.4,4.3V29.6z"/>
			<path fill="#F59524" d="M132.9,18.7L132.9,18.7c0.7-1,1.6-2.2,3.9-2.2c2.8,0,5.3,2.2,5.3,6.6c0,3.5-1.6,6.9-5.4,6.9
				c-2.3,0-3.2-1.3-3.6-2h0v9.1h-3.4V16.9h3.2V18.7z M135.8,27.2c2.2,0,2.8-2.3,2.8-3.9c0-2-0.7-3.9-2.9-3.9c-2.3,0-2.9,2.1-2.9,4.1
				C132.9,25.4,133.7,27.2,135.8,27.2z"/>
			<path fill="#F59524" d="M168.7,25c-0.1,1.3-1.2,5-5.8,5c-4.8,0-5.9-3.7-5.9-6.4c0-4.1,1.8-7.1,6.1-7.1c2,0,5.3,0.9,5.6,4.9h-3.4
				c-0.1-0.8-0.6-2.1-2.1-2.1h-0.2c-2.1,0-2.7,2.1-2.7,3.7c0,1.4,0,4.1,2.6,4.1c1.7,0,2.3-1.6,2.3-2.2H168.7z"/>
			<path fill="#F59524" d="M174.8,16.9h2.1v2.4h-2.1v6.9c0,0.7,0,1,1.4,1c0.2,0,0.5,0,0.7,0v2.5c-0.5,0-1.1,0-1.6,0h-0.4
				c-2.9,0-3.4-1.1-3.4-2.8v-7.7h-1.7v-2.4h1.7v-3.5h3.4V16.9z"/>
			<path fill="#F59524" d="M149.6,16.5c-2.6,0-5.3,0.6-5.7,4.5h3.2c0.1-0.7,0.4-1.8,2.1-1.8c0.9,0,2.2,0.1,2.2,1.5
				c0,0.7-0.6,0.9-1.2,1l-3,0.5c-2.1,0.3-3.7,1.6-3.7,4.1c0,2.6,2,3.7,3.9,3.7c2.2,0,3.3-1,4-1.7v1.4h0.4h2.9v-2.5v-3.9V23v-2.8
				C154.7,17.1,151.4,16.5,149.6,16.5z M148.4,27.5c-0.6,0-1.6-0.4-1.6-1.5c0-1.4,1-1.7,2.3-1.9c1.4-0.2,1.9-0.4,2.3-0.7V25
				C151.4,26.6,149.9,27.5,148.4,27.5z"/>
		</g>
		<g>
			<path fill="#353838" d="M53.6,32.9l-0.7,2.2h1.5L53.6,32.9z M53.1,32.1h0.9l1.8,5H55l-0.4-1.3h-1.9L52.2,37h-0.9L53.1,32.1z"/>
			<polygon fill="#353838" points="61.2,32.1 62.1,32.1 64.4,35.8 64.4,32.1 65.2,32.1 65.2,37 64.3,37 62,33.3 62,37 61.2,37 			
				"/>
			<path fill="#353838" d="M72.8,32.9l-0.7,2.2h1.5L72.8,32.9z M72.4,32.1h0.9l1.8,5h-0.9l-0.4-1.3h-1.9L71.4,37h-0.9L72.4,32.1z"/>
			<polygon fill="#353838" points="80.4,32.1 81.3,32.1 81.3,36.3 83.7,36.3 83.7,37 80.4,37 			"/>
			<polygon fill="#353838" points="87.8,32.1 88.9,32.1 90.1,34.3 91.3,32.1 92.2,32.1 90.5,35.1 90.5,37 89.7,37 89.7,35.1 			"/>
			<polygon fill="#353838" points="97,32.1 100.9,32.1 100.9,32.8 99.4,32.8 99.4,37 98.6,37 98.6,32.8 97,32.8 			"/>
			<rect x="106.3" y="32.1" fill="#353838" width="0.8" height="5"/>
			<path fill="#353838" d="M117.3,33.6h-0.8c0-0.3-0.2-0.5-0.4-0.7c-0.2-0.2-0.5-0.3-0.9-0.3c-0.5,0-0.8,0.2-1.1,0.5
				c-0.3,0.3-0.4,0.8-0.4,1.4c0,0.6,0.1,1.1,0.4,1.4c0.3,0.3,0.6,0.5,1.1,0.5c0.4,0,0.7-0.1,0.9-0.3c0.2-0.2,0.4-0.5,0.4-0.9h0.8
				c0,0.6-0.2,1-0.6,1.4c-0.4,0.4-0.9,0.5-1.5,0.5c-0.7,0-1.3-0.2-1.7-0.7c-0.4-0.5-0.6-1.1-0.6-1.9c0-0.8,0.2-1.5,0.6-1.9
				c0.4-0.5,1-0.7,1.7-0.7c0.6,0,1.1,0.1,1.5,0.5C117,32.7,117.2,33.1,117.3,33.6z"/>
			<path fill="#353838" d="M126.6,33.5l-0.8,0c0-0.3-0.1-0.5-0.3-0.7c-0.2-0.2-0.5-0.2-0.8-0.2c-0.3,0-0.5,0.1-0.7,0.2
				c-0.2,0.1-0.3,0.3-0.3,0.5c0,0.2,0.1,0.3,0.2,0.5c0.2,0.1,0.5,0.2,1,0.4c0.7,0.2,1.2,0.4,1.4,0.6c0.2,0.2,0.3,0.5,0.3,0.9
				c0,0.5-0.2,0.8-0.5,1.1c-0.4,0.3-0.8,0.4-1.4,0.4c-0.6,0-1.1-0.1-1.4-0.4c-0.3-0.3-0.5-0.7-0.6-1.3h0.8c0,0.3,0.1,0.6,0.4,0.7
				c0.2,0.2,0.5,0.3,0.9,0.3c0.3,0,0.5-0.1,0.7-0.2c0.2-0.1,0.3-0.3,0.3-0.5c0-0.1,0-0.2-0.1-0.3c-0.1-0.1-0.1-0.2-0.2-0.3
				c-0.1-0.1-0.4-0.2-0.9-0.3c-0.1,0-0.2,0-0.2-0.1c-0.6-0.1-1-0.3-1.2-0.6c-0.2-0.2-0.3-0.5-0.3-0.9c0-0.4,0.2-0.8,0.5-1
				c0.3-0.3,0.8-0.4,1.3-0.4c0.5,0,1,0.1,1.3,0.4C126.4,32.6,126.6,33,126.6,33.5z"/>
		</g>
	</g>
	<g>
		<path fill="#F59524" d="M12.8,33.1c-0.8,0-1.5-0.3-2.1-0.9c-1.2-1.2-1.2-3,0-4.2c0.6-0.6,1.3-0.9,2.1-0.9c0.8,0,1.5,0.3,2.1,0.9
			c0.6,0.6,0.9,1.3,0.9,2.1c0,0.8-0.3,1.5-0.9,2.1C14.3,32.8,13.5,33.1,12.8,33.1L12.8,33.1z M30.2,33.1c-0.8,0-1.5-0.3-2.1-0.9
			c-1.2-1.2-1.2-3,0-4.2c0.6-0.6,1.3-0.9,2.1-0.9c0.8,0,1.5,0.3,2.1,0.9c1.1,1.1,1.1,3,0,4.2C31.8,32.8,31,33.1,30.2,33.1L30.2,33.1
			z M12.7,15.6c-0.8,0-1.5-0.3-2.1-0.9c-0.6-0.6-0.9-1.3-0.9-2.1c0-0.8,0.3-1.5,0.9-2.1c0.6-0.6,1.3-0.9,2.1-0.9
			c0.8,0,1.5,0.3,2.1,0.9c0.6,0.6,0.9,1.3,0.9,2.1c0,0.8-0.3,1.5-0.9,2.1C14.3,15.3,13.5,15.6,12.7,15.6L12.7,15.6z M30.2,15.6
			c-0.8,0-1.5-0.3-2.1-0.9c-0.6-0.6-0.9-1.3-0.9-2.1c0-0.8,0.3-1.5,0.9-2.1c0.6-0.6,1.3-0.9,2.1-0.9s1.5,0.3,2.1,0.9
			c1.1,1.2,1.1,3,0,4.2C31.7,15.3,31,15.6,30.2,15.6L30.2,15.6z"/>
		<path fill="#353838" d="M35.5,18.6c-1.1,0-2,0.6-2.4,1.5c-0.1,0.2-0.4,0.4-0.6,0.4h-4.5c-0.3,0-0.6-0.2-0.7-0.5
			c-0.5-2.2-2.3-3.9-4.5-4.4c-0.3-0.1-0.5-0.4-0.5-0.7l0-4.5c0-0.2,0.2-0.5,0.4-0.6c0.9-0.4,1.5-1.4,1.5-2.4c0-1.5-1.2-2.7-2.7-2.7
			c-1.5,0-2.7,1.2-2.7,2.7c0,1.1,0.6,2,1.5,2.4c0.2,0.1,0.4,0.4,0.4,0.6v4.5c0,0.3-0.3,0.6-0.5,0.7c-2.2,0.5-3.9,2.2-4.5,4.4
			c-0.1,0.3-0.4,0.5-0.7,0.5h-4.5c-0.2,0-0.5-0.2-0.6-0.4c-0.4-0.9-1.4-1.5-2.4-1.5c-1.5,0-2.7,1.2-2.7,2.7C4.8,22.8,6,24,7.5,24
			c1.1,0,2-0.6,2.4-1.5c0.1-0.2,0.4-0.4,0.6-0.4H15c0.3,0,0.6,0.3,0.7,0.5c0.5,2.2,2.3,4,4.5,4.5c0.3,0.1,0.5,0.4,0.5,0.7v4.4
			c0,0.2-0.2,0.5-0.4,0.6c-0.9,0.4-1.5,1.4-1.5,2.4c0,1.5,1.2,2.7,2.7,2.7c1.5,0,2.7-1.2,2.7-2.7c0-1.1-0.6-2-1.5-2.4
			c-0.2-0.1-0.4-0.4-0.4-0.6v-4.4c0-0.3,0.3-0.6,0.5-0.7c2.2-0.5,4-2.3,4.5-4.5c0.1-0.3,0.4-0.5,0.7-0.5h4.5c0.2,0,0.5,0.2,0.6,0.4
			c0.4,0.9,1.4,1.5,2.4,1.5c1.5,0,2.7-1.2,2.7-2.7C38.2,19.8,37,18.6,35.5,18.6z M23.5,23.4c-1.1,1.1-3,1.1-4.1,0
			c-1.1-1.1-1.1-3,0-4.1c1.1-1.1,3-1.1,4.1,0C24.7,20.4,24.7,22.2,23.5,23.4z"/>
		<path fill="#9C9D9E" d="M29.2,42.9c-0.5,0-1-0.2-1.4-0.5c-1.1-0.8-1.3-2.3-0.5-3.4c0.5-0.6,1.2-1,2-1c0.5,0,1,0.2,1.4,0.5
			c0.5,0.4,0.9,0.9,1,1.6c0.1,0.6-0.1,1.3-0.4,1.8C30.7,42.6,30,42.9,29.2,42.9L29.2,42.9z M13.4,42.9c-1.2,0-2.2-0.9-2.4-2
			c-0.1-0.6,0-1.3,0.4-1.8c0.4-0.5,0.9-0.9,1.6-1c0.1,0,0.3,0,0.4,0c1.2,0,2.2,0.9,2.4,2c0.2,1.3-0.7,2.5-2,2.8
			C13.7,42.9,13.6,42.9,13.4,42.9L13.4,42.9z M40.5,32c-1.2,0-2.2-0.9-2.4-2c-0.1-0.6,0.1-1.3,0.4-1.8c0.4-0.5,0.9-0.9,1.6-1
			c0.1,0,0.3,0,0.4,0c1.2,0,2.2,0.9,2.4,2c0.2,1.3-0.7,2.6-2,2.8C40.7,32,40.6,32,40.5,32L40.5,32z M2.4,31.4c-0.5,0-1-0.2-1.4-0.5
			c-0.5-0.4-0.9-0.9-1-1.6c-0.1-0.6,0.1-1.3,0.4-1.8c0.5-0.6,1.2-1,2-1c0.5,0,1,0.2,1.4,0.5c0.5,0.4,0.9,0.9,1,1.6
			c0.1,0.6-0.1,1.3-0.4,1.8C3.9,31.1,3.2,31.4,2.4,31.4L2.4,31.4z M40.5,16.1c-0.5,0-1-0.2-1.4-0.5c-0.5-0.4-0.9-0.9-1-1.6
			c-0.1-0.6,0.1-1.3,0.4-1.8c0.5-0.6,1.2-1,2-1c0.5,0,1,0.2,1.4,0.5c0.5,0.4,0.9,0.9,1,1.6c0.1,0.6-0.1,1.3-0.4,1.8
			C42,15.7,41.2,16.1,40.5,16.1L40.5,16.1z M2.5,15.9c-1.2,0-2.2-0.9-2.4-2c-0.2-1.3,0.7-2.6,2-2.8c0.1,0,0.3,0,0.4,0
			c1.2,0,2.2,0.9,2.4,2c0.2,1.3-0.7,2.6-2,2.8C2.8,15.8,2.7,15.9,2.5,15.9L2.5,15.9z M29.5,5c-1.2,0-2.2-0.9-2.4-2
			c-0.2-1.3,0.7-2.5,2-2.8c0.1,0,0.3,0,0.4,0c1.2,0,2.2,0.9,2.4,2C32,2.8,31.9,3.5,31.5,4c-0.4,0.5-0.9,0.9-1.6,1
			C29.8,5,29.6,5,29.5,5L29.5,5z M13.8,4.8c-0.5,0-1-0.2-1.4-0.5c-1.1-0.8-1.3-2.3-0.5-3.4c0.5-0.6,1.2-1,2-1c0.5,0,1,0.2,1.4,0.5
			c1.1,0.8,1.3,2.3,0.5,3.4C15.3,4.4,14.6,4.8,13.8,4.8L13.8,4.8z"/>
	</g>
</g>
</svg>
