<svg xmlns="http://www.w3.org/2000/svg" viewBox="0 0 176.9 42.9" enable-background="new 0 0 176.9 42.9"><g fill="#fff"><path d="M78.8 25.9c-.9 3.1-3.4 4.1-5.6 4.1-3.6 0-6.4-1.7-6.4-7 0-1.5.5-6.5 6.1-6.5 2.5 0 6 1.2 6 7v.6h-8.8c.1 1 .3 3.1 3 3.1.9 0 1.9-.5 2.2-1.4h3.5zm-3.3-3.9c-.2-2.1-1.5-2.7-2.6-2.7-1.6 0-2.4 1-2.6 2.7h5.2zM98 29.6h-3.4v-17.2h3.4v17.2zM86.5 16.5c-2.6 0-5.3.6-5.7 4.5h3.2c.1-.7.4-1.8 2.1-1.8.9 0 2.2.1 2.2 1.5 0 .7-.6.9-1.2 1l-3 .5c-2.1.3-3.7 1.6-3.7 4.1 0 2.6 2 3.7 3.9 3.7 2.2 0 3.3-1 4-1.7v1.4h3.3v-9.5c-.1-3.1-3.3-3.7-5.1-3.7zm-1.2 11c-.6 0-1.6-.4-1.6-1.5 0-1.4 1-1.7 2.3-1.9 1.4-.2 1.9-.4 2.3-.7v1.6c0 1.6-1.6 2.5-3 2.5zM65 25.7c-.1-3.2-.8-3.7-2.3-4.3 1.7-.6 2.7-2.2 2.7-4.1 0-1.5-.8-4.9-5.4-4.9h-8.7v17.2h3.5v-6.7h3.7c2.7 0 2.8.9 2.8 3.3 0 1.8.1 2.7.4 3.5h3.7c0-.1-.3-2.1-.4-4zm-6-5.7h-4.2v-4.6h4.5c2.1 0 2.5 1.3 2.5 2.3 0 1.6-.9 2.3-2.8 2.3z"/></g><g fill="#F59524"><path d="M105.3 29.6h-3.6v-17.2h3.6v17.2zM126.6 29.6h-3.4v-7.7c0-1.9-.8-2.5-1.8-2.5-1.7 0-2.3 1.1-2.3 2.6v7.6h-3.4v-7.7c0-1.1 0-2.6-2-2.6-1.6 0-2.1 1.1-2.1 2.5v7.8h-3.4v-12.7h3.2v1.9c.4-.8 1.4-2.2 3.6-2.2 1.8 0 2.7.7 3.5 2 .4-.6 1.4-2 3.4-2 2.5 0 4.4 1.5 4.4 4.3v8.7zM132.9 18.7c.7-1 1.6-2.2 3.9-2.2 2.8 0 5.3 2.2 5.3 6.6 0 3.5-1.6 6.9-5.4 6.9-2.3 0-3.2-1.3-3.6-2v9.1h-3.4v-20.2h3.2v1.8zm2.9 8.5c2.2 0 2.8-2.3 2.8-3.9 0-2-.7-3.9-2.9-3.9-2.3 0-2.9 2.1-2.9 4.1.1 1.9.9 3.7 3 3.7zM168.7 25c-.1 1.3-1.2 5-5.8 5-4.8 0-5.9-3.7-5.9-6.4 0-4.1 1.8-7.1 6.1-7.1 2 0 5.3.9 5.6 4.9h-3.4c-.1-.8-.6-2.1-2.1-2.1h-.2c-2.1 0-2.7 2.1-2.7 3.7 0 1.4 0 4.1 2.6 4.1 1.7 0 2.3-1.6 2.3-2.2h3.5zM174.8 16.9h2.1v2.4h-2.1v6.9c0 .7 0 1 1.4 1h.7v2.5h-2c-2.9 0-3.4-1.1-3.4-2.8v-7.7h-1.7v-2.4h1.7v-3.5h3.4v3.6zM149.6 16.5c-2.6 0-5.3.6-5.7 4.5h3.2c.1-.7.4-1.8 2.1-1.8.9 0 2.2.1 2.2 1.5 0 .7-.6.9-1.2 1l-3 .5c-2.1.3-3.7 1.6-3.7 4.1 0 2.6 2 3.7 3.9 3.7 2.2 0 3.3-1 4-1.7v1.4h3.3v-9.5c0-3.1-3.3-3.7-5.1-3.7zm-1.2 11c-.6 0-1.6-.4-1.6-1.5 0-1.4 1-1.7 2.3-1.9 1.4-.2 1.9-.4 2.3-.7v1.6c0 1.6-1.5 2.5-3 2.5z"/></g><g fill="#fff"><path d="M53.6 32.9l-.7 2.2h1.5l-.8-2.2zm-.5-.8h.9l1.8 5h-.8l-.4-1.3h-1.9l-.5 1.2h-.9l1.8-4.9zM61.2 32.1h.9l2.3 3.7v-3.7h.8v4.9h-.9l-2.3-3.7v3.7h-.8zM72.8 32.9l-.7 2.2h1.5l-.8-2.2zm-.4-.8h.9l1.8 5h-.9l-.4-1.3h-1.9l-.5 1.2h-.9l1.9-4.9zM80.4 32.1h.9v4.2h2.4v.7h-3.3zM87.8 32.1h1.1l1.2 2.2 1.2-2.2h.9l-1.7 3v1.9h-.8v-1.9zM97 32.1h3.9v.7h-1.5v4.2h-.8v-4.2h-1.6zM106.3 32.1h.8v5h-.8zM117.3 33.6h-.8c0-.3-.2-.5-.4-.7-.2-.2-.5-.3-.9-.3-.5 0-.8.2-1.1.5-.3.3-.4.8-.4 1.4 0 .6.1 1.1.4 1.4.3.3.6.5 1.1.5.4 0 .7-.1.9-.3.2-.2.4-.5.4-.9h.8c0 .6-.2 1-.6 1.4-.4.4-.9.5-1.5.5-.7 0-1.3-.2-1.7-.7-.4-.5-.6-1.1-.6-1.9 0-.8.2-1.5.6-1.9.4-.5 1-.7 1.7-.7.6 0 1.1.1 1.5.5.3.3.5.7.6 1.2zM126.6 33.5h-.8c0-.3-.1-.5-.3-.7-.2-.2-.5-.2-.8-.2-.3 0-.5.1-.7.2-.2.1-.3.3-.3.5s.1.3.2.5c.2.1.5.2 1 .4.7.2 1.2.4 1.4.6.2.2.3.5.3.9 0 .5-.2.8-.5 1.1-.4.3-.8.4-1.4.4-.6 0-1.1-.1-1.4-.4-.3-.3-.5-.7-.6-1.3h.8c0 .3.1.6.4.7.2.2.5.3.9.3.3 0 .5-.1.7-.2.2-.1.3-.3.3-.5 0-.1 0-.2-.1-.3l-.2-.3c-.1-.1-.4-.2-.9-.3-.1 0-.2 0-.2-.1-.6-.1-1-.3-1.2-.6-.2-.2-.3-.5-.3-.9s.2-.8.5-1c.3-.3.8-.4 1.3-.4s1 .1 1.3.4c.4.3.6.7.6 1.2z"/></g><path fill="#F59524" d="M12.8 33.1c-.8 0-1.5-.3-2.1-.9-1.2-1.2-1.2-3 0-4.2.6-.6 1.3-.9 2.1-.9s1.5.3 2.1.9c.6.6.9 1.3.9 2.1s-.3 1.5-.9 2.1c-.6.6-1.4.9-2.1.9zm17.4 0c-.8 0-1.5-.3-2.1-.9-1.2-1.2-1.2-3 0-4.2.6-.6 1.3-.9 2.1-.9s1.5.3 2.1.9c1.1 1.1 1.1 3 0 4.2-.5.6-1.3.9-2.1.9zm-17.5-17.5c-.8 0-1.5-.3-2.1-.9-.6-.6-.9-1.3-.9-2.1s.3-1.5.9-2.1c.6-.6 1.3-.9 2.1-.9s1.5.3 2.1.9c.6.6.9 1.3.9 2.1s-.3 1.5-.9 2.1c-.5.6-1.3.9-2.1.9zm17.5 0c-.8 0-1.5-.3-2.1-.9-.6-.6-.9-1.3-.9-2.1s.3-1.5.9-2.1c.6-.6 1.3-.9 2.1-.9s1.5.3 2.1.9c1.1 1.2 1.1 3 0 4.2-.6.6-1.3.9-2.1.9z"/><path fill="#fff" d="M35.5 18.6c-1.1 0-2 .6-2.4 1.5-.1.2-.4.4-.6.4h-4.5c-.3 0-.6-.2-.7-.5-.5-2.2-2.3-3.9-4.5-4.4-.3-.1-.5-.4-.5-.7v-4.5c0-.2.2-.5.4-.6.9-.4 1.5-1.4 1.5-2.4 0-1.5-1.2-2.7-2.7-2.7-1.5 0-2.7 1.2-2.7 2.7 0 1.1.6 2 1.5 2.4.2.1.4.4.4.6v4.5c0 .3-.3.6-.5.7-2.2.5-3.9 2.2-4.5 4.4-.1.3-.4.5-.7.5h-4.5c-.2 0-.5-.2-.6-.4-.4-.9-1.4-1.5-2.4-1.5-1.5 0-2.7 1.2-2.7 2.7 0 1.5 1.2 2.7 2.7 2.7 1.1 0 2-.6 2.4-1.5.1-.2.4-.4.6-.4h4.5c.3 0 .6.3.7.5.5 2.2 2.3 4 4.5 4.5.3.1.5.4.5.7v4.4c0 .2-.2.5-.4.6-.9.4-1.5 1.4-1.5 2.4 0 1.5 1.2 2.7 2.7 2.7 1.5 0 2.7-1.2 2.7-2.7 0-1.1-.6-2-1.5-2.4-.2-.1-.4-.4-.4-.6v-4.4c0-.3.3-.6.5-.7 2.2-.5 4-2.3 4.5-4.5.1-.3.4-.5.7-.5h4.5c.2 0 .5.2.6.4.4.9 1.4 1.5 2.4 1.5 1.5 0 2.7-1.2 2.7-2.7 0-1.5-1.2-2.7-2.7-2.7zm-12 4.8c-1.1 1.1-3 1.1-4.1 0-1.1-1.1-1.1-3 0-4.1 1.1-1.1 3-1.1 4.1 0 1.2 1.1 1.2 2.9 0 4.1z"/><path fill="#9C9D9E" d="M29.2 42.9c-.5 0-1-.2-1.4-.5-1.1-.8-1.3-2.3-.5-3.4.5-.6 1.2-1 2-1 .5 0 1 .2 1.4.5.5.4.9.9 1 1.6.1.6-.1 1.3-.4 1.8-.6.7-1.3 1-2.1 1zm-15.8 0c-1.2 0-2.2-.9-2.4-2-.1-.6 0-1.3.4-1.8s.9-.9 1.6-1h.4c1.2 0 2.2.9 2.4 2 .2 1.3-.7 2.5-2 2.8h-.4zm27.1-10.9c-1.2 0-2.2-.9-2.4-2-.1-.6.1-1.3.4-1.8.4-.5.9-.9 1.6-1h.4c1.2 0 2.2.9 2.4 2 .2 1.3-.7 2.6-2 2.8h-.4zm-38.1-.6c-.5 0-1-.2-1.4-.5-.5-.4-.9-.9-1-1.6-.1-.6.1-1.3.4-1.8.5-.6 1.2-1 2-1 .5 0 1 .2 1.4.5.5.4.9.9 1 1.6.1.6-.1 1.3-.4 1.8-.5.7-1.2 1-2 1zm38.1-15.3c-.5 0-1-.2-1.4-.5-.5-.4-.9-.9-1-1.6-.1-.6.1-1.3.4-1.8.5-.6 1.2-1 2-1 .5 0 1 .2 1.4.5.5.4.9.9 1 1.6.1.6-.1 1.3-.4 1.8-.5.6-1.3 1-2 1zm-38-.2c-1.2 0-2.2-.9-2.4-2-.2-1.3.7-2.6 2-2.8h.4c1.2 0 2.2.9 2.4 2 .2 1.3-.7 2.6-2 2.8-.1-.1-.2 0-.4 0zm27-10.9c-1.2 0-2.2-.9-2.4-2-.2-1.3.7-2.5 2-2.8h.4c1.2 0 2.2.9 2.4 2 .1.6 0 1.3-.4 1.8s-.9.9-1.6 1h-.4zm-15.7-.2c-.5 0-1-.2-1.4-.5-1.1-.8-1.3-2.3-.5-3.4.5-.6 1.2-1 2-1 .5 0 1 .2 1.4.5 1.1.8 1.3 2.3.5 3.4-.5.6-1.2 1-2 1z"/></svg>